<svg xmlns="http://www.w3.org/2000/svg" viewBox="0 0 256 312"><path fill="#4285F4" d="M128 311.6l-105-60.6v-123l105 60.6 105-60.6v123l-105 60.6z"/><path fill="#34A853" d="M128 0l105 60.6-105 60.6-105-60.6L128 0z"/><path fill="#8AB4F8" d="M128 121.2v190.4l105-60.6v-123L128 121.2z"/><path fill="#0D47A1" d="M128 121.2L23 60.6v123l105 60.6v-190.4z"/><path fill="#1967D2" d="M128 121.2L23 60.6l105-60.6 105 60.6-105 60.6z"/><path fill="#CEEAD6" d="M128 226l-60-34.6v-69.2l60-34.6 60 34.6v69.2l-60 34.6z"/></svg>
