<svg xmlns="http://www.w3.org/2000/svg" viewBox="0 0 48 48" width="48px" height="48px"><path fill="#4CAF50" d="M41,10H25v28h16c0.553,0,1-0.447,1-1V11C42,10.447,41.553,10,41,10z"/><path fill="#5E35B1" d="M32,15h7v3h-7V15z M32,22h7v3h-7V22z M32,29h7v3h-7V29z"/><path fill="#1B5E20" d="M40,15h-8v3h8V15z M40,22h-8v3h8V22z M40,29h-8v3h8V29z"/><path fill="#4CAF50" d="M22,9H7c-0.553,0-1,0.447-1,1v28c0,0.553,0.447,1,1,1h15V9z"/><path fill="#FFF" d="M12.25,27l2.844-5.068l-2.684-5.328h2.625l1.458,3.582c0.125,0.306,0.222,0.58,0.292,0.822h0.038 c0.078-0.264,0.18-0.531,0.305-0.801l1.528-3.602h2.469l-2.736,5.188L21.366,27h-2.585l-1.637-3.901 c-0.129-0.308-0.237-0.612-0.323-0.912h-0.034c-0.072,0.274-0.18,0.583-0.323,0.926L14.792,27H12.25z"/></svg>
